# xmcd CD database file
#
# Track frame offsets:
#	150
#	14527
#	28731
#	44873
#	57932
#	72316
#	85512
#	100471
#	113982
#	127788
#	141227
#	154792
#	168383
#	179327
#	192694
#	205362
#	218028
#	229943
#	243006
#	257952
#	271001
#	283733
#	298759
#	311027
#
# Disc length: 4333 seconds
#
# Revision: 0
# Processed by: cddbd v1.5.2PL0 Copyright (c) Steve Scherf et al.
# Submitted via: CDex 1.70beta2
#
DISCID=7210eb18
DTITLE=Various Artist - That Devilin' Tune (A Jazz History) Volume 2 [CD1)
DYEAR=2006
DGENRE=Jazz
TTITLE0=Bix Beiderbecke and Frankie Trumbauer - I'm Comin' Virginia
TTITLE1=Red McKenzie and Eddie Condon - Nobody's Sweetheart
TTITLE2=George Olsen - Sam The Accordian Man
TTITLE3=Ray Miller - My Honey's Lovin' Arms
TTITLE4=Duke Ellington - What Can A Poor Fellow Do?
TTITLE5=Bix Beiderbecke - Sorry
TTITLE6=Louis Dumaine - Pretty Audrey
TTITLE7=Louis Dumaine - To-Wa-Ba-Ca
TTITLE8=Bix Beiderbecke and Frankie Trumbauer - Baltimore
TTITLE9=Jesse Stone - Boot to Boot
TTITLE10=Reb Spikes - My Mammy's Blues
TTITLE11=Johnny Hyman's Bayou Stompers - Alligator Blues
TTITLE12=Johnny Doods and Tiny Parham - Oh Daddy
TTITLE13=Annette Hanshaw - Miss Annabelle Lee
TTITLE14=Jean Goldkette - I'm Gonna Meet My Sweetie Now
TTITLE15=Ted Weems - She'll Never Meet A Fellow Like Me
TTITLE16=Perry Bradford - It's Right Here For You
TTITLE17=Dixie Stompers - Wang Wang Blues
TTITLE18=Sadie McKinney - Rock Away
TTITLE19=Paul Whiteman - Changes
TTITLE20=Williamson's Beale Street Frolic Orchestra - Midnight Frolic Stomp
TTITLE21=Oscar Celestin - It's Jam Up
TTITLE22=Don Voorhees - Soliloquy
TTITLE23=Miff Mole - Honolulu Blues
EXTD=YEAR: 2006
EXTT0=
EXTT1=
EXTT2=
EXTT3=
EXTT4=
EXTT5=
EXTT6=
EXTT7=
EXTT8=
EXTT9=
EXTT10=
EXTT11=
EXTT12=
EXTT13=
EXTT14=
EXTT15=
EXTT16=
EXTT17=
EXTT18=
EXTT19=
EXTT20=
EXTT21=
EXTT22=
EXTT23=
PLAYORDER=
